<?xml version="1.0" encoding="utf-8"?>
<!-- Generator: Adobe Illustrator 27.5.0, SVG Export Plug-In . SVG Version: 6.00 Build 0)  -->
<svg version="1.1" id="Capa_1" xmlns="http://www.w3.org/2000/svg" xmlns:xlink="http://www.w3.org/1999/xlink" x="0px" y="0px"
	 viewBox="0 0 2197 2049" style="enable-background:new 0 0 2197 2049;" xml:space="preserve">
<g>
	<rect x="-0.005" style="opacity:0.6;fill:#DAEDF6;" width="2196.211" height="2048.984"/>
	<path style="opacity:0.6;fill:#B4E3F6;" d="M1659.942,246.607c-326.217-86.9-640.597-79.063-970.14-26.614
		c-177.296,28.219-390.037,67.192-481.099,280.967c-63.815,149.808,11.46,190.651,52.048,311.546
		c39.488,117.595-42.243,192.212-87.087,282.743c-47.728,96.338-78.491,245.224-43.501,353.196
		c137.337,423.764,730.673,438.474,1034.406,411.253c264.933-23.748,784.099-4.999,897.287-382.978
		c60.055-200.573-39.706-406.244-39.439-608.571c0.173-131.508,27.573-261.492-34.43-381.337
		C1913.718,343.257,1791.12,281.552,1659.942,246.607z"/>
	<path style="opacity:0.6;fill:#98DAF4;" d="M154.554,1509.793c172.47,363.749,721.695,375.743,1010.015,349.9
		c256.957-23.029,753.033-6.104,885.95-349.9H154.554z"/>
</g>
<path style="opacity:0.6;fill:#D9D1E4;" d="M1175.563,887.817v-47.872h-38.28c-0.674-4.253-1.536-8.44-2.532-12.577l35.733-14.105
	l-17.579-44.527l-36.164,14.276c-3.062-5.17-6.382-10.169-9.979-14.948l27.598-27.598l-33.855-33.848l-27.855,27.855
	c-4.023-2.941-8.18-5.706-12.471-8.272l15.126-36.437l-44.21-18.359l-15.201,36.61c-4.876-1.196-9.83-2.187-14.864-2.933v-39.669
	H953.16v39.669c-4.097,0.607-8.13,1.395-12.119,2.299l-14.567-36.892l-44.527,17.579l14.502,36.733
	c-5.153,2.958-10.137,6.181-14.914,9.672l-27.855-27.855l-33.85,33.848l27.597,27.598c-3.037,4.028-5.876,8.209-8.532,12.517
	l-35.916-14.913l-18.357,44.21l35.47,14.73c-1.303,5.019-2.363,10.139-3.186,15.337h-38.28v47.872h37.814
	c0.599,4.34,1.367,8.623,2.299,12.85L783.702,914.5l17.584,44.527l34.618-13.67c3.082,5.445,6.466,10.695,10.137,15.726
	l-26.21,26.21l33.85,33.85l25.952-25.952c4.271,3.215,8.695,6.233,13.279,9.017l-14.031,33.786l44.215,18.362l13.952-33.612
	c5.271,1.343,10.647,2.413,16.112,3.226v36.377h47.872v-36.377c4.504-0.669,8.928-1.551,13.308-2.577l13.373,33.88l44.527-17.584
	l-13.442-34.049c5.455-3.191,10.732-6.664,15.761-10.449l25.947,25.952l33.855-33.85l-26.215-26.21
	c3.116-4.266,6.025-8.688,8.715-13.251l34.35,14.262l18.357-44.212l-34.761-14.433c1.224-5.123,2.21-10.335,2.938-15.632H1175.563z
	 M977.096,957.629c-51.781,0-93.751-41.973-93.751-93.749c0-51.776,41.971-93.749,93.751-93.749
	c51.776,0,93.746,41.973,93.746,93.749C1070.842,915.656,1028.872,957.629,977.096,957.629z"/>
<path style="opacity:0.6;fill:#AFC3E2;" d="M738.159,555.525v-50.718h-19.992c-0.896-6.277-2.1-12.451-3.632-18.498l18.481-7.586
	l-19.264-46.918l-18.555,7.618c-3.394-5.743-7.075-11.297-11.064-16.603l14.19-14.19l-35.866-35.864l-14.21,14.212
	c-5.009-3.756-10.231-7.234-15.627-10.457l7.759-18.56l-46.796-19.559l-7.749,18.543c-6.386-1.647-12.917-2.921-19.551-3.859
	v-20.158h-50.716v20.158c-6.262,0.887-12.416,2.081-18.446,3.597l-7.64-18.61l-46.92,19.259l7.645,18.624
	c-5.742,3.382-11.296,7.043-16.608,11.022l-14.21-14.212l-35.866,35.864l14.19,14.19c-3.765,5.007-7.263,10.224-10.499,15.619
	l-18.491-7.729l-19.561,46.796l18.421,7.697c-1.665,6.401-2.953,12.947-3.905,19.603h-19.992v50.718h19.943
	c0.882,6.285,2.081,12.471,3.597,18.527l-18.397,7.554l19.263,46.92l18.382-7.548c3.394,5.775,7.07,11.364,11.073,16.7
	l-14.026,14.024l35.866,35.862l13.997-13.999c5.039,3.788,10.286,7.3,15.711,10.551l-7.63,18.255l46.796,19.556l7.61-18.203
	c6.426,1.665,13.006,2.953,19.694,3.902v19.779h50.716v-19.779c6.302-0.897,12.506-2.098,18.585-3.632l7.497,18.263l46.92-19.259
	l-7.521-18.317c5.777-3.406,11.356-7.102,16.697-11.116l13.997,13.999l35.866-35.862l-14.026-14.024
	c3.775-5.036,7.273-10.288,10.509-15.716l18.322,7.657l19.556-46.794l-18.327-7.659c1.655-6.411,2.918-12.974,3.859-19.64H738.159z
	 M540.926,640.432c-60.798,0-110.082-49.284-110.082-110.077c0-60.796,49.284-110.08,110.082-110.08
	c60.793,0,110.077,49.284,110.077,110.08C651.003,591.148,601.719,640.432,540.926,640.432z"/>
<path style="opacity:0.6;fill:#989ECC;" d="M1881.8,633.129v-65.532h-25.829c-1.159-8.111-2.715-16.088-4.692-23.901l23.871-9.8
	l-24.882-60.623l-23.98,9.843c-4.385-7.419-9.136-14.594-14.294-21.453l18.332-18.335l-46.336-46.338l-18.367,18.364
	c-6.471-4.853-13.219-9.347-20.19-13.511l10.023-23.983l-60.461-25.269l-10.018,23.958c-8.244-2.128-16.682-3.773-25.259-4.989
	v-26.044h-65.53v26.044c-8.086,1.147-16.038,2.691-23.832,4.65l-9.87-24.045l-60.625,24.885l9.88,24.065
	c-7.422,4.367-14.602,9.097-21.458,14.239l-18.367-18.364l-46.336,46.338l18.332,18.335c-4.865,6.471-9.384,13.211-13.566,20.185
	l-23.896-9.989l-25.268,60.464l23.802,9.947c-2.146,8.269-3.82,16.727-5.044,25.328h-25.833v65.532h25.769
	c1.14,8.12,2.686,16.112,4.647,23.94l-23.767,9.758l24.882,60.625l23.752-9.751c4.39,7.462,9.141,14.68,14.309,21.575
	l-18.119,18.119l46.336,46.338l18.095-18.089c6.5,4.895,13.283,9.434,20.299,13.633l-9.859,23.586l60.461,25.271l9.834-23.522
	c8.304,2.153,16.802,3.815,25.442,5.041v25.556h65.53v-25.556c8.146-1.157,16.167-2.71,24.015-4.692l9.686,23.599l60.625-24.885
	l-9.716-23.669c7.462-4.402,14.675-9.178,21.567-14.363l18.094,18.089l46.336-46.338l-18.119-18.119
	c4.88-6.505,9.394-13.293,13.575-20.304l23.674,9.894l25.273-60.466l-23.683-9.897c2.135-8.282,3.776-16.761,4.985-25.375H1881.8z
	 M1626.954,742.837c-78.551,0-142.233-63.677-142.233-142.23s63.682-142.23,142.233-142.23c78.55,0,142.232,63.677,142.232,142.23
	S1705.505,742.837,1626.954,742.837z"/>
<g>
	<g>
		<g>
			<polygon style="fill:#88ABD8;" points="1621.088,1590.171 1397.511,1688.184 722.518,1688.184 722.518,1120.577 
				1516.397,1120.577 			"/>
		</g>
		<g>
			<polygon style="fill:#6A8AC5;" points="722.518,1586.337 722.518,1688.184 1397.511,1688.184 1621.088,1590.171 
				1620.231,1586.337 			"/>
		</g>
		<g>
			<polygon style="fill:#FFFFFF;" points="1397.511,1688.184 603.627,1688.184 719.822,1120.577 1513.706,1120.577 			"/>
		</g>
		<g>
			<g>
				<g style="opacity:0.7;">
					<polygon style="fill:#916EA2;" points="1146.589,1615.787 1226.571,1246.627 1146.728,1246.578 1068.652,1615.787 					"/>
				</g>
				<g>
					<polygon style="fill:#E76C63;" points="1253.599,1615.787 1346.874,1198.984 1266.813,1198.925 1175.687,1615.787 					"/>
				</g>
				<g>
					<polygon style="fill:#88ABD8;" points="1040.837,1615.787 1099.738,1334.795 1020.315,1334.756 962.871,1615.787 					"/>
				</g>
				<g style="opacity:0.7;">
					<polygon style="fill:#4865A2;" points="825.564,1615.787 847.711,1502.375 769.096,1502.36 747.533,1615.787 					"/>
				</g>
				<g>
					<polygon style="fill:#FFD686;" points="929.571,1615.787 969.956,1416.071 890.925,1416.046 851.571,1615.787 					"/>
				</g>
			</g>
		</g>
		<g style="opacity:0.7;">
			<path style="fill:#4865A2;" d="M1352.627,1651.718H662.294c-1.784,0-3.478-0.808-4.608-2.2c-1.13-1.387-1.566-3.216-1.194-4.964
				l101.629-479.399c0.679-3.211,3.84-5.277,7.036-4.578c3.205,0.684,5.257,3.83,4.573,7.036l-100.113,472.235h683.01
				c3.28,0,5.936,2.655,5.936,5.935C1358.562,1649.062,1355.907,1651.718,1352.627,1651.718z"/>
		</g>
	</g>
	<g>
		<path style="fill:#4865A2;" d="M1716.093,714.001c3.008,8.73,4.33,17.861,3.136,27.268c-2.388,18.872-2.651,18.072,6.857,32.136
			c7.189,10.628,12.901,18.401,14.948,31.553c3.305,21.231-3.765,43.135-7.987,63.721c-7.016,34.19,27.147,40.759,26.988,72.87
			c-0.213,41.428-45.934,83.87-89.872,63.149c-19.397-9.141-42.075-50.376-53.664-68.807
			c-30.055-47.79-51.83-110.684-65.663-165.242c-5.401-21.302-0.476-41.161,8.586-60.095c5.178-10.816,3.235-21.904,9.434-32.507
			c6.714-11.49,12.382-21.857,24.09-29.15c24.773-15.436,64.474-8.344,84.62,11.398
			C1692.405,674.837,1708.973,693.293,1716.093,714.001z"/>
		<g>
			<g>
				<g>
					<path style="fill:#EAB1B8;" d="M1498.724,824.667c6.763-0.803,26.229-6.292,28.192-16.162
						c1.64-8.269-1.447-11.081-1.437-11.074c-14.487-18.528-29.653-36.535-45.592-53.827c-5.044-5.47-15.022-20.678-22.118-22.866
						c-8.923-2.752-20.75,6.339-28.093,10.373c5.525,2.832,9.201,13.771,12.476,19.251c4.598,7.687,9.364,15.272,14.418,22.672
						C1469.12,791.422,1483.349,808.58,1498.724,824.667z"/>
				</g>
			</g>
		</g>
		<g>
			<g>
				<path style="fill:#9CD4F0;" d="M1550.584,802.27c-5.163-2.883-23.663-16.573-36.179-26.381
					c0.763,2.718-25.065,31.599-37.853,43.616c13.66,12.669,27.374,24.119,45.751,35.52c38.349,23.78,92.201,44.203,105.003,20.111
					C1638.608,853.87,1596.33,827.838,1550.584,802.27z"/>
			</g>
		</g>
		<g>
			<g>
				<path style="fill:#EAB1B8;" d="M1657.95,741.776c-1.68,8.41-13.858,19.648-16.93,12.451c-1.878-4.4-3.533-14.088-1.853-22.499
					c1.68-8.413,0.277-9.493,7.943-7.959C1654.779,725.302,1659.63,733.364,1657.95,741.776z"/>
			</g>
		</g>
		<path style="fill:#EAB1B8;" d="M1642.269,769.805c-1.293-16.96-51.008,14.567-51.008,14.567l5.322,64.705
			c0,0,0.515-2.599,24.966-2.019c14.898,0.349,27.543-0.367,26.799-14.289C1647.888,824.164,1642.72,775.671,1642.269,769.805z"/>
		<path style="fill:#E5958A;" d="M1643.017,786.165c-7.03,22.724-27.231,39.109-48.372,37.425l-3.384-39.216
			c0,0,49.715-31.529,51.008-14.569c0.139,1.796,0.723,7.596,1.471,15.015C1643.438,785.187,1643.185,785.625,1643.017,786.165z"/>
		<path style="fill:#EAB1B8;" d="M1587.857,798.267c16.415,7.791,42.838-1.737,51.87-16.804c5.465-9.114,7.571-18.34,6.867-28.549
			c-0.788-11.5-4.147-21.741-5.034-33.29c-0.382-4.982-0.887-9.989-2.304-14.797c-2.264-7.69-6.902-14.718-13.159-19.952
			c-6.154-5.148-14.235-6.582-21.726-9.055c-6.347-2.093-13.546-4.826-20.348-4.409c-4.692,0.287-7.085,3.694-10.261,6.896
			c-17.227,17.383-20.591,48.424-15.696,71.503C1561.707,766.993,1570.967,790.247,1587.857,798.267z"/>
		<path style="fill:#EAB1B8;" d="M1572.874,1203.74c1.551,32.324,11.227,53.56,18.253,71.951
			c36.58,95.822,63.097,186.69,78.59,212.766c16.945,28.519,66.907-22.737,66.907-22.737s-68.939-285.619-84.833-303.97
			C1635.897,1143.393,1571.631,1177.828,1572.874,1203.74z"/>
		<path style="fill:#3F578E;" d="M1572.874,1203.74c1.551,32.324,11.227,53.56,18.253,71.951
			c36.58,95.822,63.097,186.69,78.59,212.766c16.945,28.519,71.104-11.138,71.104-11.138s-61.19-295.479-77.084-313.836
			C1647.843,1145.132,1571.631,1177.828,1572.874,1203.74z"/>
		<path style="fill:#EAB1B8;" d="M1678.675,1527.178c0,0,12.639,41.02,111.687,163.151c13.248,16.331,18.535-7.293,18.535-7.293
			s-77.188-182.236-90.357-199.755C1705.381,1465.756,1678.675,1527.178,1678.675,1527.178z"/>
		<path style="fill:#3F578E;" d="M1713.407,1628.094c-34.821-63.171-47.118-144.774-47.118-144.774s59.653-26.091,72.818-8.567
			c6.644,8.844,30.649,61.418,53.108,112.218C1774.735,1595.656,1713.576,1628.015,1713.407,1628.094z"/>
		<path style="fill:#EAB1B8;" d="M1575.362,1188.862c-18.099,26.819-23.059,49.626-28.44,68.567
			c-28.038,98.656-42.169,174.378-45.365,204.542c-3.493,32.988,48.204,34.776,48.204,34.776s115.705-270.081,113.956-294.295
			C1661.969,1178.234,1589.874,1167.359,1575.362,1188.862z"/>
		<path style="fill:#EAB1B8;" d="M1502.578,1526.386c0,0-7.075,43.853,31.155,196.381c5.108,20.398,21.092-0.114,21.092-0.114
			s6.545-170.24,2.012-191.679C1552.303,1509.53,1502.578,1526.386,1502.578,1526.386z"/>
		<path style="fill:#4865A2;" d="M1488.963,1664.07c-12.535-93.613,6.426-190.173,6.426-190.173s57.142,1.684,61.68,23.128
			c2.552,12.074,22.435,118.787,23.128,167.045H1488.963z"/>
		<path style="fill:#4865A2;" d="M1503.321,1414.272c7.541-42.075,17.406-83.728,29.53-124.718
			c13.764-46.539,25.408-87.36,44.498-131.872c4.9-11.43-1.576-59.991,5.891-64.94c17.405-11.539,61.893,2.542,85.621,7.224
			c5.658,1.12,9.255,3.993,14.135,7.071c7.972,5.019,18.501,32.091,21.201,41.118c7.348,24.54,1.818,55.15-11.262,76.014
			c-10.464,16.702-20.339,33.771-29.956,50.978c-8.264,14.78-18.49,27.974-26.973,42.833
			c-18.912,33.132-31.219,69.162-45.028,104.79c-4.667,12.055-34.336,69.206-34.47,77.565
			c-0.728,44.235-40.266-18.619-53.842-22.583c-7.818-2.279-7.362-3.731-6.892-12.149c0.362-6.431,1.293-12.818,2.25-19.174
			C1499.64,1435.686,1501.404,1424.964,1503.321,1414.272z"/>
		<path style="fill:#EAB1B8;" d="M1579.667,1115.558c-3.83-76.559-18.719-189.193-9.067-200.085
			c16.989-19.174,17.782-61.055,30.074-76.42c18.382-22.977,34.261-33.768,57.236-0.515c7.788,11.274,17.415,78.868,19.254,87.31
			c4.078,18.711,5.618,111.932,10.236,187.02L1579.667,1115.558z"/>
		<path style="fill:#FFFFFF;" d="M1579.667,1115.558c-3.969-56.067-7.744-102.447-12.614-135.584
			c-1.472-10.04-4.529-19.761-6.198-29.651c-1.536-9.156,2.804-21.751,6.485-30.012c3.755-8.423,7.695-16.848,11.267-25.363
			c3.518-8.375,6.253-17.046,8.997-25.7c0.858-2.693,5.406-22.291,8.111-22.521c0.297-0.024,10.543-0.899,14.591-1.771
			c7.273-1.57,14.052-4.387,20.438-8.19c1.744-1.041,15.587-12.33,16.013-11.877c22.365,23.522,35.168,57.519,38.755,87.692
			c1.293,10.9-0.654,177.455,3.265,200.875L1579.667,1115.558z"/>
		<path style="fill:#9CD4F0;" d="M1589.408,1013.216c-1.016-34.038,0.025-68.503,10.078-101.297
			c8.656-28.241,21.578-54.347,36.967-79.477c4.519-3.52,10.038-7.833,10.305-7.551c22.365,23.522,35.168,57.519,38.755,87.692
			c1.293,10.9,24.827,211.503,28.747,234.928l-107.079,20.562C1601.443,1132.582,1590.463,1048.923,1589.408,1013.216z"/>
		<path style="fill:#4865A2;" d="M1607.22,645.107c-2.725,1.781-4.811,4.501-7.991,7.553c-6.386,6.126-12.476,12.857-15.082,21.523
			c-1.67,5.557-2.492,12.255-2.997,18.027c-0.942,10.749,2.973,20.524,11.495,26.975c6.589,4.994,13.853,7.348,21.885,8.579
			c4.147,0.634,9.374,1.697,12.763,4.345c2.458,1.918,2.824,5.391,5.148,7.144c7.962,5.993,7.927-6.812,8.67-10.917
			c-0.391,2.155,0.07,0.542,1.378-4.838c2.844-11.78,2.784-21.402,9.627-31.653c6.01-9,8.368-25.378,2.071-34.858
			c-7.11-10.702-26.978-13.967-38.705-14.049C1611.813,642.912,1609.326,643.729,1607.22,645.107z"/>
		<path style="fill:#374D7E;" d="M1481.373,1735.827c6.034-0.882,7.908-0.049,13.952-1.041c5.955-0.976,11.821-3.062,17.222-5.742
			c5.341-2.656,13.12-8.071,17.703-11.738c0.58-0.466,1.164-0.852,1.754-1.199c8.165,3.766,12.837,3.518,21.577-0.183
			c0.832-0.347,1.372-0.857,1.675-1.447c0.253,0.198,0.48,0.431,0.683,0.694c1.407,1.793,1.655,4.266,1.982,6.436
			c0.614,4.043,2.512,20.849,1.684,24.832c-1.169,5.629-31.819,12.337-41.871,12.961c-13.541,0.842-23.872,1.412-37.239-0.753
			C1467.46,1756.538,1471.161,1737.314,1481.373,1735.827z"/>
		<path style="fill:#374D7E;" d="M1743.056,1715.379c5.351-2.923,7.402-2.794,12.723-5.821c5.247-2.988,10.013-6.986,14.146-11.376
			c4.087-4.345,9.498-12.129,12.521-17.163c0.381-0.634,0.797-1.199,1.228-1.734c8.963,0.699,13.254-1.164,20.166-7.67
			c0.659-0.62,0.991-1.288,1.07-1.942c0.302,0.099,0.6,0.237,0.882,0.411c1.938,1.194,3.027,3.429,4.093,5.346
			c1.982,3.583,9.607,18.674,10.216,22.698c0.857,5.683-25.541,22.633-34.752,26.715c-12.401,5.495-21.889,9.622-35.178,12.243
			C1737.219,1739.637,1733.999,1720.329,1743.056,1715.379z"/>
		<path style="fill:#4865A2;" d="M1554.166,710.181c2.388-13.89,6.025-28.94,14.042-40.777c5.698-8.413,14.606-18.104,23.981-22.177
			c5.123-2.222,12.872-5.416,18.347-4.645c6.916,13.643-6.04,32.887-12.154,45.288c-4.147,8.41-11.341,10.539-17.44,16.469
			c-4.657,4.529-7.858,10.199-11.802,15.3c-4.217,5.458-9.171,9.362-12.144,15.768
			C1551.421,732.848,1553.343,714.94,1554.166,710.181z"/>
		<path style="fill:#EAB1B8;" d="M1400.89,704.136c7.645-6.939,18.485-10.425,27.379-3.711c7.471,5.638,3.632,15.414,0.446,22.308
			c-5.351,11.567-10.405,15.476-24.085,13.008C1385.253,732.249,1389.573,714.41,1400.89,704.136z"/>
		<g>
			<path style="fill:#FDB72B;" d="M1345.517,879.458c-10.781,69.236-82.078,145.347-82.078,145.347s-43.076-97.487-32.295-166.723
				c10.781-69.235,42.491-88.499,71.337-84.005C1331.327,778.567,1356.298,810.219,1345.517,879.458z"/>
			<path style="fill:#F99F2C;" d="M1332.937,848.261c-7.585,48.719-57.756,102.278-57.756,102.278s-30.318-68.602-22.731-117.323
				c7.59-48.722,29.901-62.275,50.205-59.114C1322.954,777.264,1340.522,799.537,1332.937,848.261z"/>
			<g>
				<g>
					<path style="fill:#FFD686;" d="M1230.074,540.473c0,0-55.863,81.954-87.994,179.496c0,0-29.887,77.384,125.178,47.433
						C1267.258,767.402,1299.681,620.269,1230.074,540.473z"/>
				</g>
				<g>
					<path style="fill:#FCBE7F;" d="M1230.074,540.47c0,0-10.464,15.354-24.932,40.662c7.115,22.531,9.528,46.955,7.402,70.321
						c-2.294,25.13-9.79,52.806-29.539,70.014c-10.588,9.223-25.546,17.606-41.777,22.994c5.797,19.643,31.665,41.166,126.031,22.94
						C1267.258,767.402,1299.681,620.269,1230.074,540.47z"/>
				</g>
			</g>
			<g>
				<g>
					<path style="fill:#FFD686;" d="M1440.17,574.972c0,0,28.296,95.062,29.247,197.754c0,0,4.94,82.804-133.675,7.122
						C1335.741,779.848,1349.594,629.824,1440.17,574.972z"/>
				</g>
				<g>
					<path style="fill:#FCBE7F;" d="M1440.17,574.972c0,0,5.296,17.804,11.385,46.313c-13.625,19.303-23.356,41.837-28.43,64.744
						c-5.46,24.635-6.738,53.28,6.847,75.679c7.283,12.005,18.986,24.54,32.805,34.608c-11.49,16.95-42.684,29.589-127.036-16.469
						C1335.741,779.848,1349.594,629.824,1440.17,574.972z"/>
				</g>
			</g>
			<path style="fill:#CE6B70;" d="M1443.936,559.508c-21.414,137.51-88.584,234.688-141.955,226.379
				c-53.372-8.311-91.081-119.443-69.667-256.956c21.414-137.511,132.407-243.322,147.212-241.015
				C1396.064,290.49,1465.349,421.998,1443.936,559.508z"/>
			<path style="fill:#CD5369;" d="M1342.261,773.434c-53.371-8.311-91.081-119.444-69.667-256.954
				c15.508-99.578,77.981-182.519,116.894-219.834c-4.127-5.322-7.59-8.361-9.964-8.73
				c-14.804-2.306-125.798,103.504-147.212,241.015c-21.414,137.51,16.296,248.645,69.667,256.956
				c13.243,2.061,27.339-2.38,41.376-12.317C1342.99,773.523,1342.623,773.491,1342.261,773.434z"/>
			<path style="fill:#5470B4;" d="M1336.346,789.455c-0.946,6.089-6.654,10.258-12.743,9.309l-52.237-8.133
				c-6.084-0.949-10.256-6.654-9.305-12.746l0,0c0.946-6.089,6.649-10.259,12.743-9.31l52.231,8.136
				C1333.125,777.658,1337.292,783.366,1336.346,789.455L1336.346,789.455z"/>
			<path style="fill:#FFD686;" d="M1433.139,397.024c-17.118-63.444-44.101-107.626-53.614-109.108
				c-8.453-1.316-48.248,32.614-84.833,87.55c0,0,15.062,12.154,68.166,20.423C1415.962,404.159,1433.139,397.024,1433.139,397.024z
				"/>
			<path style="fill:#FCBE7F;" d="M1388.027,294.823c-3.483-4.194-6.411-6.582-8.502-6.907c-8.453-1.316-48.248,32.614-84.833,87.55
				c0,0,6.283,5.056,24.982,10.865C1330.901,363.493,1360.415,320.284,1388.027,294.823z"/>
			<g>
				<path style="fill:#5470B4;" d="M1400.667,490.946c-4.642,29.809-32.572,50.213-62.384,45.57
					c-29.807-4.643-50.21-32.572-45.573-62.381c4.647-29.81,32.572-50.213,62.384-45.57
					C1384.906,433.208,1405.309,461.137,1400.667,490.946z"/>
				<path style="fill:#B3E4FA;" d="M1391.818,489.569c-3.884,24.922-27.236,41.98-52.157,38.098
					c-24.922-3.879-41.98-27.231-38.101-52.154c3.884-24.922,27.235-41.981,52.157-38.099
					C1378.643,441.293,1395.697,464.645,1391.818,489.569z"/>
				<path style="fill:#B3E4FA;" d="M1391.818,489.569c-3.884,24.922-27.236,41.98-52.157,38.098
					c-24.922-3.879-41.98-27.231-38.101-52.154c3.884-24.922,27.235-41.981,52.157-38.099
					C1378.643,441.293,1395.697,464.645,1391.818,489.569z"/>
				<path style="fill:#009BD8;" d="M1392.249,479.375c-0.084,1.573-0.243,3.156-0.491,4.746
					c-3.88,24.922-27.231,41.98-52.152,38.101c-21.478-3.344-37.105-21.152-38.532-41.963c-1.18,23.078,15.255,43.776,38.586,47.408
					c24.922,3.882,48.273-13.176,52.157-38.098C1392.353,486.123,1392.477,482.712,1392.249,479.375z"/>
				<path style="opacity:0.7;fill:#FFFFFF;" d="M1338.357,437.639c-4.915,0.919-9.592,2.636-13.878,5.026
					c17.802,24.402,35.575,48.818,53.391,73.204c3.626-3.386,6.718-7.372,9.106-11.831
					C1370.815,481.875,1354.608,459.74,1338.357,437.639z"/>
				<path style="opacity:0.7;fill:#FFFFFF;" d="M1316.7,448.141c-2.745,2.388-5.222,5.086-7.342,8.086
					c17.113,23.244,34.172,46.526,51.201,69.826c3.424-1.093,6.679-2.606,9.721-4.444
					C1352.399,497.135,1334.562,472.626,1316.7,448.141z"/>
			</g>
			<path style="fill:#FFD686;" d="M1332.883,708.662c-11.084,71.16-29.812,127.328-41.832,125.456
				c-12.02-1.871-12.783-61.073-1.7-132.234c11.079-71.161,29.807-127.329,41.827-125.456
				C1343.198,578.299,1343.961,637.504,1332.883,708.662z"/>
			<path style="opacity:0.8;fill:#FFFFFF;" d="M1400.721,324.374c0,0,0.149,0.3,0.436,0.884c0.283,0.59,0.699,1.467,1.239,2.609
				c1.025,2.242,2.472,5.524,4.157,9.731c3.349,8.413,7.68,20.554,11.698,35.423c1.06,3.704,1.962,7.61,2.992,11.626
				c0.892,4.048,1.937,8.207,2.76,12.535c1.848,8.611,3.305,17.782,4.712,27.27c1.238,9.513,2.398,19.36,3.052,29.406
				c0.163,2.507,0.376,5.026,0.505,7.556c0.109,2.53,0.218,5.069,0.327,7.61c0.287,5.081,0.248,10.192,0.352,15.298
				c0.075,5.105-0.104,10.212-0.149,15.297c-0.158,5.081-0.426,10.14-0.634,15.156c-0.371,5.009-0.733,9.976-1.095,14.884
				c-0.516,4.895-1.021,9.728-1.516,14.482c-0.595,4.744-1.268,9.394-1.883,13.952c-0.605,4.558-1.467,8.978-2.16,13.298
				c-0.679,4.328-1.526,8.5-2.358,12.535c-0.847,4.028-1.526,7.952-2.438,11.66c-1.784,7.425-3.26,14.269-4.975,20.232
				c-1.645,5.98-2.948,11.227-4.325,15.461c-2.601,8.512-4.088,13.375-4.088,13.375c-0.525,1.719-2.344,2.685-4.063,2.16
				c-1.695-0.52-2.661-2.304-2.175-4.003l0.03-0.104c0,0,1.382-4.833,3.8-13.288c1.283-4.206,2.482-9.414,3.993-15.342
				c1.591-5.914,2.918-12.697,4.548-20.047c0.833-3.671,1.427-7.551,2.195-11.534c0.748-3.991,1.511-8.114,2.096-12.387
				c0.609-4.268,1.387-8.631,1.897-13.127c0.525-4.494,1.055-9.085,1.601-13.754c0.406-4.679,0.817-9.438,1.233-14.257
				c0.267-4.826,0.54-9.711,0.817-14.636c0.109-4.927,0.288-9.894,0.352-14.881c-0.055-4.987,0.034-9.993-0.129-14.995
				c-0.193-5.001-0.238-10.006-0.609-14.978c-0.154-2.485-0.302-4.967-0.451-7.439c-0.173-2.475-0.426-4.932-0.634-7.385
				c-0.817-9.81-2.121-19.41-3.498-28.67c-1.536-9.235-3.122-18.146-5.069-26.497c-0.872-4.197-1.972-8.22-2.903-12.139
				c-1.071-3.884-2.012-7.663-3.107-11.232c-4.157-14.349-8.547-25.977-11.886-33.939c-1.675-3.976-3.092-7.031-4.073-9.085
				c-1.001-2.061-1.487-2.965-1.522-3.029l-0.054-0.104c-1.571-3.022-0.387-6.748,2.631-8.316c3.022-1.571,6.748-0.394,8.318,2.631
				C1400.682,324.3,1400.706,324.349,1400.721,324.374z"/>
		</g>
		<g>
			<g>
				<g>
					<g>
						<path style="fill:#EAB1B8;" d="M1478.519,839.732c-2.354,1.73-17.148,25.195-7.561,31.326
							c37.299,23.839,71.619,32.247,114.824,37.348c18.689,2.207,55.105,10.471,71.128-2.685
							c15.538-12.753-0.986-16.083-11.881-19.266c-23.609-6.897-44.825-10.286-69.459-12.976
							c-24.07-2.629-49.774-19.009-72.07-28.95C1503.495,844.526,1485.772,836.625,1478.519,839.732z"/>
					</g>
				</g>
			</g>
			<g>
				<g>
					<g>
						<path style="fill:#EAB1B8;" d="M1479.029,876.81c6.476-2.101,24.501-11.276,24.506-21.337
							c0.005-8.433-3.572-10.588-3.567-10.581c-35.039-30.201-69.102-55.075-98.434-73.021
							c-28.84-17.646-18.778,13.014-18.778,13.014C1407.816,813.111,1429.131,841.78,1479.029,876.81z"/>
					</g>
				</g>
			</g>
			<g>
				<g>
					<path style="fill:#FFFFFF;" d="M1514.197,847.753c22.588,3.691,50.849,12.359,59.817,13.058
						c52.252,4.068,101.545,10.009,100.182,34.053c-1.541,27.238-59,31.237-103.78,25.695
						c-38.938-4.821-63.993-16.206-103.135-29.032C1473.673,876.217,1496.335,854.09,1514.197,847.753z"/>
				</g>
			</g>
			<path style="fill:#EAB1B8;" d="M1382.513,731.379c-0.877-1.137-1.764-2.282-2.814-3.263c-1.551-1.449-3.81-2.546-5.767-1.719
				c-2.289,0.971-2.869,4.016-2.398,6.458c0.283,1.469,0.828,2.891,1.596,4.174c1.496,2.492,3.76,4.268,5.613,6.453
				c0.967,1.138,1.526,2.227,2.002,3.32c-9.572-6.663-19.482-12.73-27.359-21.778c-1.358-1.559-2.933-3.302-4.999-3.32
				c-1.803-0.015-3.304,1.313-4.598,2.571c-2.502,2.447-4.95,4.952-7.338,7.513c-2.517,2.708-5.138,5.941-4.796,9.624
				c0.258,2.77,2.15,5.079,3.979,7.174c7.962,9.117,16.068,19.692,26.948,25.16c8.631,4.335,16.261,10.4,25.179,14.311
				c0,0,14.468-9.783,15.374-11.401c0.362-0.649-0.184-3.149-1.368-6.272c0.129-2.956-0.877-12.882-1.154-13.655
				C1397.213,747.372,1388.543,739.175,1382.513,731.379z"/>
		</g>
	</g>
	<path style="fill:#5470B4;" d="M1308.635,1016.981l31.819,24.055l-104.488,139.334l-86.299-69.256
		c-4.321-3.463-10.732-2.363-14.681,2.517l-98.26,121.432L913.275,1111.51c-1.903-1.908-4.598-2.72-7.476-2.25
		c-2.869,0.466-5.673,2.18-7.769,4.747c-27.701,33.904-55.942,68.483-84.758,103.755c-15.686,19.209-32.676,38.309-47.674,58.866
		c-4.038,8.646-4.162,11.985-3.23,16.137c1.674,7.501,10.157,7.893,16.593-0.059l125.664-155.248l123.747,125.545
		c4.276,4.34,11.336,3.364,15.785-2.19l99.251-123.845l86.943,70.638c4.642,3.771,11.371,2.577,15.3-2.72l111.965-150.878
		l34.905,26.383l10.558-116.305L1308.635,1016.981z"/>
	<g>
		<g>
			<g>
				<g>
					<path style="fill:#EAB1B8;" d="M829.295,867.059c-50.136-60.944-66.709-57.573-98.944-81.036
						c-47.208-34.362-125.966-48.59-121.591-11.133c2.145,18.359,173.025,107.081,201.836,126.427
						C818.905,893.814,820.822,877.657,829.295,867.059z"/>
				</g>
			</g>
		</g>
		<g>
			<g>
				<path style="fill:#F0928B;" d="M811.953,912.161c-24.654-15.637-125.094-77.488-135.103-82.648
					c-58.306-30.06-84.883-41.825-76.504-74.045c9.488-36.498,78.372-8.158,128.023,19.95c32.785,18.56,49.036,29.314,100.252,73.42
					C840.304,865.491,834.081,911.874,811.953,912.161z"/>
			</g>
		</g>
		<path style="fill:#4865A2;" d="M574.102,541.144c-11.921-1.984-23.435,1.055-34.078,6.396c-4.925,2.477-8.418,4.152-13.759,5.581
			c-18.04,4.828-22.093,31.796-20.676,47.344c0.773,8.539,4.226,16.984,6.625,25.147c6.288,21.446,23.807,43.187,48.218,42.107
			c15.563-0.688,31.561-9.245,41.173-21.443C625.635,615.775,619.219,548.648,574.102,541.144z"/>
		<g>
			<g>
				<g>
					<path style="fill:#EAB1B8;" d="M816.561,895.003c-7.58-2.217-28.811-12.251-29.153-23.921
						c-0.292-9.785,3.785-12.406,3.776-12.399c39.627-36.231,78.302-66.248,111.717-88.063
						c32.864-21.456,22.231,14.458,22.231,14.458C897.019,818.68,873.262,852.666,816.561,895.003z"/>
				</g>
			</g>
		</g>
		<path style="fill:#EAB1B8;" d="M913.464,753.737c-4.855,10.625-8.978,21.689-6.362,24.332l0.525,0.53
			c0.729-0.609,1.462-1.221,2.195-1.833c0,0-1.55,2.423,0.857-0.716c0.218-0.186,0.441-0.374,0.664-0.557
			c-0.981,3.349-0.723,6.53,2.051,8.935c9.122,7.913,21.048-5.019,27.454-10.749c5.212-4.658,9.557-10.318,13.605-15.981
			c4.737-6.634,5.143-23.138-3.602-27.117c-8.968-4.078-10.078,10.61-17.332,7.33c-4.013-1.818-2.774-15.771-9.537-5.361
			C922.813,734.937,917.844,744.159,913.464,753.737z"/>
		<g>
			<g>
				<path style="fill:#F0928B;" d="M895.553,774.799c-32.056,21.444-72.664,47.527-110.017,81.677
					c-2.042,14.316,1.58,4.821,1.873,14.606c0.342,11.671,20.443,38.366,28.028,40.586c51.301-38.306,76.911-83.773,101.907-114.305
					L895.553,774.799z"/>
			</g>
		</g>
		<g>
			<g>
				<path style="fill:#FFFFFF;" d="M907.489,810.011c3.329-4.434,6.6-8.673,9.855-12.649l-21.791-22.563
					c-4.434,2.968-9.022,6.112-13.709,9.394L907.489,810.011z"/>
			</g>
		</g>
		<polygon style="fill:#F7D48D;" points="375.857,1174.464 375.857,1225.709 386.312,1225.709 386.312,1186.83 452,1186.83 
			452,1225.709 462.449,1225.709 462.449,1174.464 		"/>
		<path style="fill:#EAB1B8;" d="M610.127,1465.022c0,0-21.518,55.006,22.846,232.05c3.552,14.17,14.596,13.274,20.502,8.706
			c3.963-3.062,3.983-8.839,3.983-8.839s20.909-201.708,15.642-226.595C667.834,1445.457,610.127,1465.022,610.127,1465.022z"/>
		<path style="fill:#3A507B;" d="M667.209,1057.832H564.391c0.01,0.456,0.02,0.917,0.025,1.353
			c0.069,19.68,0.213,39.359,0.481,59.035c0.674,49.769-0.436,36.976,2.453,86.671c2.458,42.268,33.359,234.363,37.784,244.6
			c4.499,10.395,2.358,29.282,11.311,37.145c14.235,12.501,42.075,19.125,54.031,3.508c8.071-10.548,4.429-64.633,5.896-78.075
			c1.249-11.425,1.204-23.128,1.724-33.8c2.101-42.907-0.808-85.918-0.981-128.84
			C676.866,1189.273,676.697,1131.204,667.209,1057.832z"/>
		<path style="fill:#374D7E;" d="M717.409,1715.226c-7.005-1.021-9.176-0.05-16.196-1.199c-6.912-1.134-13.719-3.557-19.987-6.669
			c-6.198-3.082-15.226-9.369-20.547-13.625c-0.674-0.535-1.358-0.986-2.041-1.392c-9.473,4.375-14.894,4.083-25.041-0.208
			c-0.966-0.406-1.591-1.001-1.942-1.679c-0.297,0.228-0.56,0.5-0.797,0.803c-1.625,2.081-1.918,4.954-2.294,7.471
			c-0.713,4.697-2.918,24.199-1.962,28.821c1.363,6.535,36.932,14.324,48.605,15.047c15.711,0.976,27.706,1.635,43.219-0.877
			C733.557,1739.271,729.261,1716.96,717.409,1715.226z"/>
		<g>
			<g>
				<path style="fill:#EAB1B8;" d="M528.871,639.682c4.157,9.045,20.933,18.458,22.464,9.51c0.937-5.475,0.203-16.861-3.958-25.905
					c-4.157-9.045-2.859-10.645-11.109-6.85C528.024,620.23,524.709,630.637,528.871,639.682z"/>
			</g>
		</g>
		<path style="fill:#EAB1B8;" d="M551.038,656.963c1.501-19.685,59.208,16.908,59.208,16.908l-6.179,75.102
			c0,0-0.595-3.015-28.974-2.344c-17.297,0.403-28.063,5.851-27.201-10.308C548.427,726.336,550.518,663.771,551.038,656.963z"/>
		<path style="fill:#E5958A;" d="M550.171,675.952c8.165,26.376,31.605,45.394,56.151,43.44l3.924-45.518
			c0,0-57.707-36.595-59.208-16.91c-0.163,2.086,0.213-4.073-0.659,4.538C550.726,661.925,549.978,675.325,550.171,675.952z"/>
		<path style="fill:#EAB1B8;" d="M623.207,684.617c-16.435,13.211-48.833,9.557-63.087-5.024
			c-8.621-8.822-13.477-18.672-15.434-30.389c-2.2-13.197-1.159-25.66-3.265-38.941c-0.907-5.727-1.684-11.517-1.377-17.326
			c0.49-9.293,3.835-18.476,9.493-26.066c5.564-7.467,14.299-11.262,22.098-16.07c6.605-4.068,13.997-9.089,21.79-10.449
			c5.376-0.936,8.993,2.264,13.437,5.029c24.129,14.995,36.273,49.138,36.952,76.512
			C644.319,642.275,640.122,671.022,623.207,684.617z"/>
		<path style="fill:#4865A2;" d="M552.118,616.437c8.319,6.372,15.523,15.062,24.525,20.47c11.931,7.169,22.078,7.917,33.816,0.087
			c11.514-7.682,21.8-9.005,33.31-7.164c-0.689,19.352-5.747,42.88-20.561,54.788c-16.435,13.211-48.833,9.557-63.087-5.024
			c-8.621-8.822-13.477-18.672-15.434-30.389c-2.195-13.174-1.164-25.618-3.255-38.871
			C545.315,611.722,548.818,613.91,552.118,616.437z"/>
		<path style="fill:#EAB1B8;" d="M535.942,1459.057c0,0,21.513,55.006-22.851,232.05c-3.552,14.17-14.591,13.273-20.503,8.705
			c-3.964-3.062-3.983-8.839-3.983-8.839s-10.658-205.354-5.396-230.241C488.476,1435.84,535.942,1459.057,535.942,1459.057z"/>
		<path style="fill:#3A507B;" d="M482.224,1057.832c-2.289,4.98-3.825,9.518-4.316,13.254c-8.834,67.15-8.71,111.737-8.958,172.376
			c-0.173,42.922,4.543,175.746,7.154,225.629c1.026,19.64,44.705,33.553,58.94,21.052c8.953-7.863,15.235-14.601,19.734-24.991
			c4.43-10.241,20.512-238.699,22.97-280.971c2.893-49.695,2.745-22.157,3.419-71.926c0.248-18.139,0.381-36.278,0.456-54.422
			H482.224z"/>
		<path style="fill:#EAB1B8;" d="M631.902,1035.907c4.449-88.863,21.726-219.596,10.524-232.24
			c-19.709-22.256,8.225-5.512-6.045-23.346c-21.33-26.668-87.677-54.506-114.343-15.909c-9.042,13.088-1.164,41.497-3.3,51.298
			c-4.727,21.716-6.52,129.915-11.876,217.072L631.902,1035.907z"/>
		<path style="fill:#F0928B;" d="M620.72,733.341c-4.925-1.732-10.34-3.082-16.137-4.13c-6.759,6.112-15.008-2.747-25.066-3.151
			c-10.484-0.419-22.781,7.375-29.772,1.942c-0.406-0.32-0.734-0.657-1.051-0.996c-5.153,0.282-10.395,0.649-15.716,1.112
			c-13.927,1.591-30.224,5.683-39.167,11.195c-36.624,22.585-30.813,70.586-30.04,83.495c2.061,34.311,5.322,305.755-0.882,342.815
			c0,0,222.641,0,222.651,0c3.766-3.28-5.306-303.584-7.947-347.232C674.056,760.079,649.224,743.367,620.72,733.341z"/>
		<g>
			<g>
				<g>
					<path style="fill:#EAB1B8;" d="M390.865,983.79c6.922-3.82,29-11.81,37.521-3.83c7.145,6.689,6.134,11.43,6.134,11.415
						c-2.22,53.649-8.185,102.243-16.256,141.326c-7.937,38.433-25.927,5.584-25.927,5.584
						C388.313,1094.654,380.941,1053.854,390.865,983.79z"/>
				</g>
			</g>
		</g>
		<g>
			<g>
				<g>
					<path style="fill:#EAB1B8;" d="M410.758,1005.927c-3.508-0.367-21.379-7.15-19.893-22.137
						c9.29-93.831,25.987-119.433,41.614-159.343c21.29-54.367,62.176-102.61,89.822-76.957
						c24.402,22.645-38.205,71.785-64.272,153.514c-4.236,13.288-15.622,54.342-36.669,94.98
						C421.361,995.988,419.855,1004.357,410.758,1005.927z"/>
				</g>
			</g>
		</g>
		<g>
			<g>
				<path style="fill:#F0928B;" d="M431.964,995.983c12.362-26.448,54.427-152.835,60.08-162.571
					c32.963-56.716,54.02-66.479,29.619-89.124c-27.647-25.652-72.154,28.251-98.399,78.915
					c-22.816,44.052-31.937,81.776-44.314,151.574C378.068,995.101,413.166,1007.651,431.964,995.983z"/>
			</g>
		</g>
		<path style="fill:#374D7E;" d="M571.892,1717.421c-7.006-1.026-9.181-0.055-16.197-1.204c-6.912-1.135-13.719-3.558-19.987-6.669
			c-6.198-3.082-15.226-9.364-20.552-13.625c-0.669-0.535-1.353-0.986-2.036-1.388c-9.473,4.37-14.893,4.083-25.045-0.213
			c-0.962-0.406-1.591-1.001-1.937-1.68c-0.297,0.233-0.56,0.5-0.803,0.803c-1.625,2.081-1.912,4.955-2.294,7.472
			c-0.708,4.697-2.918,24.198-1.957,28.821c1.362,6.535,36.932,14.324,48.6,15.047c15.721,0.976,27.706,1.635,43.224-0.877
			C588.039,1741.461,583.743,1719.15,571.892,1717.421z"/>
		<path style="fill:#3A507B;" d="M662.571,1697.082c5.708-58.935,14.408-208.406,10.529-226.738
			c-5.266-24.887-62.973-5.322-62.973-5.322s-25.749,55.125,19.973,230.732L662.571,1697.082z"/>
		<path style="fill:#3A507B;" d="M518.11,1697.414c36.739-158.632,38.433-249.936,38.433-249.936s-81.642-30.153-79.516,15.905
			c0.897,19.368,2.765,173.263,6.54,234.81L518.11,1697.414z"/>
		<rect x="332.564" y="1222.172" style="fill:#4865A2;" width="190.847" height="167.655"/>
		<rect x="321.961" y="1222.172" style="fill:#6379AD;" width="190.847" height="167.655"/>
		<rect x="321.961" y="1222.172" style="fill:#778FC1;" width="190.847" height="76.648"/>
		<path style="fill:#EAB1B8;" d="M418.873,1153.451c-1.149-8.854-2.745-15.989-8.854-23.019h-0.748
			c-0.08,0.941-0.164,1.893-0.248,2.849c0,0-0.624-2.809-0.089,1.11c-0.03,0.287-0.05,0.575-0.075,0.867
			c-1.684-3.062-4.127-5.118-7.784-4.846c-12.05,0.897-11.276,18.471-11.727,27.057c-0.367,6.976,0.585,14.051,1.754,20.914
			c1.333,7.848,7.016,11.247,13.273,15.889c2.512,0.287,18.243,1.397,16.578-5.049c-0.287-1.1-5.351-3.017-6.332-4.583
			c-3.953-6.337-1.288-12.986-1.828-19.64c2.135,3.483,2.428,9.879,6.808,11.549
			C423.813,1178.155,420.271,1159.327,418.873,1153.451z"/>
		<path style="fill:#F7D48D;" d="M424.894,1299.924c0,3.419-2.765,6.189-6.184,6.189h-19.437c-3.414,0-6.184-2.77-6.184-6.189l0,0
			c0-3.414,2.77-6.183,6.184-6.183h19.437C422.129,1293.741,424.894,1296.511,424.894,1299.924L424.894,1299.924z"/>
		<g>
			<g>
				<path style="fill:#F0928B;" d="M420.479,1124.541c7.373-37.854,13.809-86.825,15.904-137.392c0,0.01-0.852-0.5-7.997-7.189
					c-8.522-7.98-41.633-12.533-48.55-8.715c-8.978,63.39,5.227,113.605,9.275,152.855L420.479,1124.541z"/>
			</g>
		</g>
		<g>
			<g>
				<path style="fill:#FFFFFF;" d="M387.085,1108.196c0.798,5.484,1.501,10.791,2.026,15.904l31.368,0.441
					c1.021-5.237,2.022-10.707,2.998-16.345H387.085z"/>
			</g>
		</g>
		<path style="fill:#FFFFFF;" d="M550.8,706.18l28.717,19.881l-21.647,33.134l-32.69-30.483
			C525.18,728.711,535.783,707.505,550.8,706.18z"/>
		<path style="fill:#FFFFFF;" d="M579.517,726.061l15.023,33.134l32.685-23.415c0,0-6.183-19.878-19.878-22.088L579.517,726.061z"/>
		<path style="fill:#4865A2;" d="M645.34,527.321c-0.709-9.563-6.481-9.676-14.725-8.433c-8.026,1.211-15.954,3.592-24.203,3.956
			c-9.171,0.406-17.168-1.41-26.027-2.812c-15.3-2.423-31.125,1.499-45.047,8.777c-20.893,10.923-33.602,47.126-29.817,70.903
			c1.249,7.858,4.32,6.01,10.316,11.247c2.73,2.388,6.342,5.381,9.81,6.61c3.052,1.085,7.258-0.352,10.454-0.681
			c1.303-1.789,4.93,1.462,6.035,2.975c1.783,2.455,2.874,7.306,6.996,6.072c3.701-1.107,4.984-5.819,5.361-9.117
			c0.803-7.021-0.178-14.051,0.064-21.08c0.505-14.452,13.779-14.463,25.184-16.568c19.556-3.607,37.526-6.372,53.857-19.333
			C642.619,552.673,646.162,538.411,645.34,527.321z"/>
		<g>
			<g>
				
					<rect x="837.125" y="355.795" transform="matrix(0.8183 -0.5748 0.5748 0.8183 -211.308 610.1346)" style="fill:#FFD686;" width="44.539" height="566.995"/>
				
					<rect x="870.61" y="345.211" transform="matrix(0.8183 -0.5748 0.5748 0.8183 -202.4857 616.8732)" style="fill:#FFF7C2;" width="7.708" height="566.994"/>
				
					<rect x="837.368" y="366.134" transform="matrix(0.8183 -0.5748 0.5748 0.8183 -219.9242 603.5553)" style="fill:#FEC463;" width="14.619" height="566.993"/>
			</g>
			<path style="fill:#F3DABF;" d="M714.669,394.5L714.669,394.5l-32.77-25.965l-32.775-25.962l13.308,39.634l13.308,39.639v-0.003
				c0,0,0,0.005,0,0.008c0.565,0.805,9.741-4.663,20.492-12.213c10.751-7.553,19.011-14.329,18.441-15.136L714.669,394.5z"/>
			<path style="fill:#39312A;" d="M677.019,364.566l-27.894-21.994l11.465,34.155C665.455,376.222,673.818,371,677.019,364.566z"/>
			
				<rect x="995.243" y="862.956" transform="matrix(0.8183 -0.5748 0.5748 0.8183 -314.7589 743.8218)" style="fill:#67686B;" width="47.965" height="13.704"/>
			<path style="fill:#E76C63;" d="M1052.248,875.091l-0.005,0.005l-9.453-13.465l-39.25,27.568l10.009,14.255
				c0.188,0.3,0.362,0.604,0.565,0.897c7.64,10.873,22.648,13.496,33.523,5.859c10.871-7.64,13.497-22.648,5.856-33.521
				C1053.1,876.129,1052.679,875.606,1052.248,875.091z"/>
		</g>
		<path style="fill:#EAB1B8;" d="M954.211,716.807c-8.79-8.928-20.973-10.984-28.985-0.054
			c-14.458,19.724,5.093,36.399,24.089,39.875c8.388,1.533,15.201-4.348,16.965-12.632
			C968.46,733.757,960.959,723.657,954.211,716.807z"/>
	</g>
</g>
</svg>
